<?xml version="1.0" encoding="UTF-8" standalone="no"?>
<svg
   xmlns:dc="http://purl.org/dc/elements/1.1/"
   xmlns:cc="http://creativecommons.org/ns#"
   xmlns:rdf="http://www.w3.org/1999/02/22-rdf-syntax-ns#"
   xmlns:svg="http://www.w3.org/2000/svg"
   xmlns="http://www.w3.org/2000/svg"
   xmlns:sodipodi="http://sodipodi.sourceforge.net/DTD/sodipodi-0.dtd"
   xmlns:inkscape="http://www.inkscape.org/namespaces/inkscape"
   version="1.1"
   preserveAspectRatio="xMidYMid meet"
   viewBox="862 408 125 163"
   id="svg3066"
   inkscape:version="0.48.4 r9939"
   width="80"
   height="80"
   sodipodi:docname="logo3.svg">
  <metadata
     id="metadata3107">
    <rdf:RDF>
      <cc:Work
         rdf:about="">
        <dc:format>image/svg+xml</dc:format>
        <dc:type
           rdf:resource="http://purl.org/dc/dcmitype/StillImage" />
        <dc:title></dc:title>
      </cc:Work>
    </rdf:RDF>
  </metadata>
  <sodipodi:namedview
     pagecolor="#ffffff"
     bordercolor="#666666"
     borderopacity="1"
     objecttolerance="10"
     gridtolerance="10"
     guidetolerance="10"
     inkscape:pageopacity="0"
     inkscape:pageshadow="2"
     inkscape:window-width="1920"
     inkscape:window-height="1056"
     id="namedview3105"
     showgrid="false"
     inkscape:zoom="5.5766871"
     inkscape:cx="62.5"
     inkscape:cy="70.700323"
     inkscape:window-x="0"
     inkscape:window-y="24"
     inkscape:window-maximized="1"
     inkscape:current-layer="svg3066" />
  <g
     id="g3201">
    <g
       transform="matrix(1.3196902,0,0,1.4421338,-297.46965,-183.89724)"
       class="logo__item"
       id="logo__item--logo_0"
       data-logo-item=""
       data-item="Image"
       data-item-type="image">
      <g
         id="g3078"
         transform="matrix(1.4397813,0,0,1.4397813,854.75451,396.5)"
         class="logo__item__inner">
        <g
           id="g3080">
          <radialGradient
             gradientUnits="userSpaceOnUse"
             r="78.444"
             cy="33.1064"
             cx="37.2603"
             id="SVGID_1_">
            <stop
               id="stop3083"
               style="stop-color:#746461"
               offset="0" />
            <stop
               id="stop3085"
               style="stop-color:#746461"
               offset="0.176" />
            <stop
               id="stop3087"
               style="stop-color:#746461"
               offset="0.3557" />
            <stop
               id="stop3089"
               style="stop-color:#746461"
               offset="0.5371" />
            <stop
               id="stop3091"
               style="stop-color:#746461"
               offset="0.7198" />
            <stop
               id="stop3093"
               style="stop-color:#746461"
               offset="0.9017" />
            <stop
               id="stop3095"
               style="stop-color:#746461"
               offset="1" />
          </radialGradient>
          <path
             id="path3097"
             data-part-id="logo__item--logo_0__0"
             d="m 80.707,55.014 c -0.371,-3.229 -3.082,-5.745 -6.41,-5.745 -3.582,0 -6.486,2.905 -6.486,6.481 0,3.586 2.904,6.486 6.486,6.486 1.24,0 2.391,-0.359 3.375,-0.969 3.49,1.547 5.824,5.025 5.824,8.939 0,5.4 -4.395,9.789 -9.795,9.789 H 25.866 c -5.396,0 -9.788,-4.389 -9.788,-9.789 0,-0.41 0.058,-0.807 0.11,-1.209 2.297,-0.996 3.902,-3.279 3.902,-5.943 0,-2.688 -1.636,-4.992 -3.962,-5.977 -0.019,-0.236 -0.05,-0.463 -0.05,-0.699 0,-5.396 4.393,-9.79 9.788,-9.79 1.774,0 3.526,0.492 5.054,1.419 1.127,0.682 2.546,0.67 3.667,-0.033 1.119,-0.708 1.737,-1.981 1.603,-3.292 -0.031,-0.339 -0.049,-0.678 -0.049,-1.022 0,-4.144 2.591,-7.664 6.231,-9.091 1.183,1.291 2.875,2.118 4.767,2.118 3.581,0 6.485,-2.908 6.485,-6.485 0,-3.582 -2.904,-6.49 -6.485,-6.49 -2.667,0 -4.953,1.613 -5.952,3.913 -5.792,1.717 -10.305,6.461 -11.618,12.417 -1.21,-0.277 -2.451,-0.418 -3.702,-0.418 -9.232,0 -16.751,7.515 -16.751,16.755 0,0.643 0.043,1.283 0.12,1.916 -1.294,1.182 -2.12,2.869 -2.12,4.76 0,1.924 0.856,3.637 2.19,4.828 -0.116,0.764 -0.19,1.537 -0.19,2.324 0,9.24 7.519,16.754 16.751,16.754 h 47.835 c 9.24,0 16.76,-7.514 16.76,-16.754 C 90.461,63.584 86.564,57.703 80.707,55.014 z M 70.73,55.75 c 0,-1.965 1.602,-3.561 3.566,-3.561 1.969,0 3.564,1.596 3.564,3.561 0,1.975 -1.596,3.57 -3.564,3.57 -1.964,0 -3.566,-1.595 -3.566,-3.57 z M 47.138,26.637 c 1.965,0 3.563,1.597 3.563,3.565 0,1.968 -1.598,3.565 -3.563,3.565 -1.975,0 -3.567,-1.596 -3.567,-3.565 0,-1.969 1.593,-3.565 3.567,-3.565 z M 13.603,66.621 c -1.966,0 -3.563,-1.598 -3.563,-3.566 0,-1.965 1.597,-3.564 3.563,-3.564 1.973,0 3.565,1.6 3.565,3.564 0,1.968 -1.592,3.566 -3.565,3.566 z"
             inkscape:connector-curvature="0"
             style="fill:url(#SVGID_1_)" />
          <path
             id="path3099"
             data-part-id="logo__item--logo_0__1"
             d="M 71.293,22.145 71.244,22.124 C 68.402,20.863 65.586,19.547 62.723,18.327 59.869,17.103 57.032,15.829 54.162,14.65 l -0.074,-0.029 c -0.389,-0.153 -0.836,-0.124 -1.217,0.116 -0.621,0.393 -0.795,1.216 -0.396,1.837 1.207,1.894 2.166,3.929 2.854,6.047 0.688,2.113 0.984,4.347 0.922,6.581 -0.178,4.475 -1.973,8.967 -5.015,12.557 1.851,-1.481 3.335,-3.4 4.522,-5.497 1.195,-2.097 1.994,-4.455 2.305,-6.907 0.33,-2.444 0.111,-4.963 -0.477,-7.366 -0.268,-1.138 -0.652,-2.242 -1.1,-3.317 1.695,0.765 3.383,1.522 5.078,2.292 2.523,1.158 5.088,2.242 7.645,3.35 -0.148,2.205 -0.566,4.55 -1.273,6.721 -0.82,2.482 -1.912,4.893 -3.418,7.056 -1.463,2.192 -3.316,4.111 -5.393,5.795 -2.098,1.688 -4.5,2.995 -6.998,4.124 2.68,-0.621 5.27,-1.7 7.676,-3.14 2.42,-1.431 4.559,-3.358 6.354,-5.567 1.762,-2.237 3.205,-4.748 4.178,-7.437 0.969,-2.713 1.654,-5.435 1.746,-8.458 0.015,-0.527 -0.282,-1.032 -0.788,-1.263 z"
             inkscape:connector-curvature="0"
             style="fill:#746461" />
          <path
             id="path3101"
             data-part-id="logo__item--logo_0__2"
             d="M 86.146,36.291 86.068,36.258 C 82.271,34.719 78.441,33.297 74.611,31.849 l -0.066,-0.025 c -0.754,-0.244 -1.572,0.169 -1.813,0.927 -1.637,5.066 -5.148,9.397 -9.404,12.822 -4.303,3.399 -9.25,6.147 -14.54,8.165 2.817,-0.4 5.547,-1.295 8.239,-2.299 2.66,-1.076 5.25,-2.4 7.641,-4.054 2.414,-1.634 4.611,-3.631 6.498,-5.918 1.559,-1.919 2.832,-4.099 3.775,-6.407 2.801,1.018 5.6,2.027 8.414,2.999 -0.779,0.844 -1.59,1.679 -2.42,2.473 -1.324,1.232 -2.709,2.399 -4.166,3.491 -2.904,2.18 -6.08,4.033 -9.57,5.352 3.689,-0.583 7.268,-2.001 10.525,-3.917 1.635,-0.951 3.197,-2.043 4.68,-3.234 1.488,-1.191 2.877,-2.437 4.209,-3.925 0.092,-0.104 0.17,-0.228 0.225,-0.364 0.264,-0.648 -0.047,-1.38 -0.692,-1.644 z"
             inkscape:connector-curvature="0"
             style="fill:#746461" />
          <path
             id="path3103"
             data-part-id="logo__item--logo_0__3"
             d="M 85.703,11.122 C 85.547,10.39 84.818,9.923 84.092,10.084 L 84,10.104 c -3.094,0.678 -6.176,1.444 -9.24,2.25 l -0.074,0.017 -0.063,0.021 c -0.707,0.223 -1.1,0.976 -0.877,1.683 0.777,2.469 1.006,5.121 0.807,7.797 -0.189,2.684 -0.828,5.381 -1.625,8.094 1.641,-2.308 2.865,-4.955 3.535,-7.797 0.555,-2.386 0.633,-4.922 0.225,-7.408 2.002,-0.451 4,-0.931 5.992,-1.439 -0.111,0.682 -0.244,1.369 -0.4,2.035 -0.303,1.353 -0.641,2.705 -1.092,4.024 -0.844,2.668 -2.02,5.228 -3.533,7.714 2.26,-1.849 4.021,-4.314 5.369,-6.953 0.641,-1.336 1.217,-2.709 1.672,-4.132 0.434,-1.439 0.811,-2.833 1.029,-4.409 0.021,-0.152 0.015,-0.318 -0.022,-0.479 z"
             inkscape:connector-curvature="0"
             style="fill:#746461" />
        </g>
      </g>
    </g>
    <a
       transform="matrix(1.3196902,0,0,1.4421338,-297.46965,-183.89724)"
       id="a3132">
      <text
         xml:space="preserve"
         fill="#766461"
         textLength="85" lengthAdjust="spacingAndGlyphs"
         style="font-size: 26px; font-weight: bold; font-family: sans-serif;"
         x="882.26294"
         y="505.36963"
         id="text3128"
         sodipodi:linespacing="125%">qeeme</text>
    </a>
  </g>
  <flowRoot
     xml:space="preserve"
     id="flowRoot3193"
     style="fill:black;stroke:none;stroke-opacity:1;stroke-width:1px;stroke-linejoin:miter;stroke-linecap:butt;fill-opacity:1;font-family:Sans;font-style:normal;font-weight:normal;font-size:40px;line-height:125%;letter-spacing:0px;word-spacing:0px"><flowRegion
       id="flowRegion3195"><rect
         id="rect3197"
         width="146.14412"
         height="128.033"
         x="-39.091309"
         y="-30.10121" /></flowRegion><flowPara
       id="flowPara3199"></flowPara></flowRoot></svg>
